<svg width="64" height="64" xmlns="http://www.w3.org/2000/svg">
<path fill="#577C8D" d="M29.2,15.9c-4.4,0-8,3.6-8,8c0,1.8,0.6,3.5,1.6,4.8c2.2-2.6,5.5-4.2,9.1-4.2c1.8,0,3.5,0.4,5,1.1c0.1-0.6,0.2-1.1,0.2-1.7
	C37.2,19.5,33.6,15.9,29.2,15.9L29.2,15.9z M18.8,19.6c-2.3,0-4.1,1.9-4.1,4.2c0,0.7,0.2,1.4,0.5,2c1.4-0.8,3-1.2,4.7-1.2
	c0.2,0,0.3,0,0.5,0c0-0.2,0-0.5,0-0.7c0-1.3,0.3-2.5,0.8-3.6C20.4,19.9,19.7,19.6,18.8,19.6L18.8,19.6z M38.4,22.5
	c-0.2,0-0.3,0-0.5,0c0.1,0.5,0.2,1,0.2,1.5c0,0.7-0.1,1.5-0.3,2.1c2,1.1,3.7,2.8,4.8,4.8c1.1-0.6,2.4-1,3.8-1.1
	C46,25.8,42.6,22.5,38.4,22.5L38.4,22.5z M32,25.5c-6.2,0-11.2,5-11.2,11.2s5,11.2,11.2,11.2s11.2-5,11.2-11.2
	C43.1,30.5,38.1,25.5,32,25.5z M19.9,25.5c-4.8,0-8.7,3.9-8.7,8.7c0,2.8,1.3,5.3,3.4,6.9c0.9-1.7,2.6-2.8,4.7-2.8
	c0.2,0,0.5,0,0.7,0.1c-0.1-0.5-0.1-1.1-0.1-1.7c0-2.7,0.9-5.2,2.4-7.2c-0.9-1.1-1.5-2.4-1.8-3.9C20.3,25.5,20.1,25.5,19.9,25.5
	L19.9,25.5z M47,30.6c-1.5,0-2.8,0.4-4,1c0.7,1.5,1.1,3.2,1.1,5c0,3.3-1.3,6.3-3.5,8.5c1.6,1.8,3.9,2.9,6.4,2.9
	c4.8,0,8.7-3.9,8.7-8.7C55.6,34.5,51.8,30.6,47,30.6L47,30.6z M10.4,31.9c-4.4,0-8,3.5-8,7.9s3.6,8,8,8c1.7,0,3.2-0.5,4.5-1.4
	c-0.5-0.8-0.8-1.8-0.8-2.9c0-0.5,0.1-1.1,0.2-1.6c-2.4-1.7-4-4.6-4-7.7c0-0.8,0.1-1.6,0.3-2.3C10.5,31.9,10.5,31.9,10.4,31.9
	L10.4,31.9z M57.2,38.7c-0.2,0-0.5,0-0.7,0.1c0,0.2,0,0.4,0,0.6c0,2.5-1,4.8-2.6,6.6c0.8,0.9,2,1.5,3.3,1.5c2.4,0,4.4-1.9,4.4-4.4
	S59.6,38.7,57.2,38.7L57.2,38.7z M19.3,39.2c-2.4,0-4.4,1.9-4.4,4.4s1.9,4.4,4.4,4.4c1.9,0,3.4-1.2,4.1-2.8
	c-1.6-1.6-2.7-3.6-3.2-5.9C19.9,39.2,19.6,39.2,19.3,39.2L19.3,39.2z"/>
</svg>
